# xmcd
#
# Track frame offsets:
#	150
#	16421
#	27755
#	49192
#	67387
#	142970
#	164603
#	181795
#	212954
#	230508
#
# Disc length: 3589 seconds
#
# Revision: 3
# Processed by: cddbd v1.5.2PL0 Copyright (c) Steve Scherf et al.
# Submitted via: EasyCDDAExtractor 10.2.0.1
#
DISCID=8e0e030a
DTITLE=Eric Clapton - Martin Scorsese Presents The Blues: Eric Clapton
DYEAR=1970
DGENRE=Blues
TTITLE0=John Mayall's Bluesbreakers - All Your Love
TTITLE1=John Mayall's Bluesbreakers - Steppin' Out
TTITLE2=Cream - Rollin' And Tumblin'
TTITLE3=Cream - I'm So Glad
TTITLE4=Cream - Spoonful (Live)
TTITLE5=Blind Faith - Sleeping In The Ground
TTITLE6=Howlin' Wolf - Rockin' Daddy
TTITLE7=Derek And The Dominos - Have You Ever Loved A Woman
TTITLE8=Eric Clapton And Duane Allman - Mean Old World
TTITLE9=Derek And The Dominos - Crossroads (Live)
EXTD=
EXTT0=
EXTT1=
EXTT2=
EXTT3=
EXTT4=
EXTT5=
EXTT6=
EXTT7=
EXTT8=
EXTT9=
PLAYORDER=
